<?xml version="1.0" encoding="UTF-8"?><svg id="Layer_1" xmlns="http://www.w3.org/2000/svg" viewBox="0 0 450 215"><defs><style>.cls-1,.cls-2{fill:#231f20;}.cls-3{fill:#ef4338;}.cls-3,.cls-2{fill-rule:evenodd;}.cls-4{fill:#ef4237;}</style></defs><path class="cls-1" d="M41.46,189.35v-24.11h-8.88v-5.29h23.52v5.29h-8.68v24.11h-5.96Z"/><path class="cls-1" d="M59.39,189.35v-30.21h5.9v12.22c.34-.49.77-.97,1.28-1.45.52-.48,1.16-.88,1.93-1.21.77-.33,1.71-.49,2.83-.49,1.34,0,2.56.26,3.67.78s1.99,1.28,2.66,2.27,1.01,2.2,1.01,3.62v14.47h-5.96v-13.6c0-.95-.34-1.68-1.03-2.19-.68-.51-1.51-.76-2.49-.76-.64,0-1.25.12-1.85.35-.6.23-1.08.58-1.45,1.05s-.56,1.05-.56,1.74v13.42h-5.94Z"/><path class="cls-1" d="M93.14,189.75c-2.09,0-3.92-.44-5.5-1.31-1.58-.88-2.81-2.11-3.69-3.71-.88-1.6-1.32-3.48-1.32-5.65s.4-4,1.21-5.68c.81-1.69,1.97-3.02,3.49-4,1.52-.98,3.35-1.47,5.51-1.47s3.94.45,5.39,1.35c1.45.9,2.55,2.16,3.29,3.76.75,1.61,1.12,3.46,1.12,5.56v1.61h-14.13c0,1.07.18,2,.53,2.79s.86,1.4,1.54,1.83,1.48.64,2.43.64c1.02,0,1.9-.22,2.66-.65.76-.43,1.29-1.15,1.61-2.13h5.35c-.24,1.49-.84,2.76-1.79,3.82-.95,1.06-2.1,1.86-3.46,2.42-1.36.56-2.77.83-4.23.83ZM88.5,176.66h8.58c0-.84-.16-1.61-.48-2.32-.32-.7-.79-1.26-1.42-1.67-.63-.41-1.42-.61-2.37-.61s-1.68.22-2.33.66c-.64.44-1.14,1.01-1.48,1.72-.35.71-.51,1.44-.5,2.22Z"/><path class="cls-4" d="M116.17,189.35v-29.4h7.91v29.4h-7.91Z"/><path class="cls-4" d="M142.62,189.75c-2.83,0-5.3-.67-7.41-2.01-2.11-1.34-3.74-3.18-4.91-5.51-1.17-2.33-1.75-4.99-1.75-7.97s.58-5.57,1.73-7.78c1.15-2.2,2.78-3.91,4.89-5.12,2.11-1.21,4.59-1.82,7.45-1.82,2.33,0,4.42.46,6.26,1.37s3.33,2.18,4.47,3.8c1.14,1.62,1.82,3.49,2.03,5.6h-8.25c-.15-.91-.43-1.69-.83-2.36-.41-.66-.94-1.17-1.6-1.53-.66-.36-1.44-.54-2.35-.54-.99,0-1.87.26-2.64.77-.77.52-1.38,1.39-1.82,2.63s-.66,2.94-.66,5.09c0,3.27.48,5.59,1.44,6.96.96,1.38,2.19,2.06,3.68,2.06.91,0,1.69-.23,2.35-.69.66-.46,1.19-1.07,1.6-1.84.41-.77.68-1.6.83-2.51h8.25c-.2,1.52-.55,2.96-1.03,4.33-.48,1.37-1.19,2.59-2.13,3.65-.94,1.06-2.19,1.9-3.75,2.5-1.56.6-3.51.9-5.86.9Z"/><path class="cls-4" d="M173.12,189.75c-2.91,0-5.44-.62-7.57-1.86-2.13-1.24-3.78-2.99-4.95-5.24-1.17-2.25-1.75-4.9-1.75-7.95s.59-5.73,1.78-8c1.19-2.27,2.85-4.03,4.99-5.29,2.14-1.25,4.64-1.88,7.5-1.88s5.33.63,7.46,1.88c2.13,1.25,3.78,3.02,4.96,5.29,1.18,2.27,1.77,4.94,1.77,8s-.58,5.68-1.74,7.94c-1.16,2.26-2.8,4.01-4.93,5.25-2.13,1.24-4.64,1.86-7.52,1.86ZM173.12,183.41c1.08,0,2.05-.27,2.9-.82.85-.55,1.51-1.45,1.99-2.7.48-1.25.72-2.94.72-5.05s-.24-3.93-.72-5.24c-.48-1.31-1.15-2.25-1.99-2.84-.85-.58-1.81-.87-2.9-.87s-2.05.29-2.9.87c-.85.58-1.51,1.53-2,2.84-.49,1.31-.73,3.05-.73,5.24s.24,3.8.73,5.05c.49,1.25,1.16,2.16,2,2.7.85.55,1.81.82,2.9.82Z"/><path class="cls-4" d="M191.78,189.35v-29.4h7.97l11.47,16.39v-16.39h7.91v29.4h-7.14l-12.3-17.52v17.52h-7.91Z"/><path class="cls-1" d="M234.65,189.35v-29.4h8.62l6.73,20.96,6.79-20.96h8.6v29.4h-6v-22.49l-7.08,22.49h-4.66l-7.03-22.38v22.38h-5.98Z"/><path class="cls-1" d="M280.32,189.75c-2.09,0-3.92-.44-5.5-1.31-1.58-.88-2.81-2.11-3.69-3.71-.88-1.6-1.32-3.48-1.32-5.65s.4-4,1.21-5.68c.81-1.69,1.97-3.02,3.49-4,1.52-.98,3.35-1.47,5.51-1.47s3.94.45,5.39,1.35,2.55,2.16,3.29,3.76c.75,1.61,1.12,3.46,1.12,5.56v1.61h-14.13c0,1.07.18,2,.53,2.79.35.79.86,1.4,1.53,1.83s1.48.64,2.43.64c1.02,0,1.9-.22,2.66-.65s1.29-1.15,1.61-2.13h5.35c-.24,1.49-.84,2.76-1.79,3.82-.95,1.06-2.1,1.86-3.46,2.42s-2.76.83-4.23.83ZM275.68,176.66h8.58c0-.84-.16-1.61-.48-2.32-.32-.7-.79-1.26-1.42-1.67-.63-.41-1.42-.61-2.37-.61s-1.68.22-2.33.66-1.14,1.01-1.48,1.72c-.35.71-.51,1.44-.5,2.22Z"/><path class="cls-1" d="M302.52,189.57c-1.86,0-3.29-.24-4.3-.71-1.01-.47-1.71-1.14-2.09-1.99-.39-.85-.58-1.84-.58-2.97v-11.45h-3.42v-4.13h3.6l1.5-6.34h4.23v6.32h4.68v4.15h-4.68l.04,11.2c0,.52.06.9.19,1.15.13.25.33.41.61.49.28.07.63.11,1.07.11h2.83v3.66c-.28.12-.71.24-1.28.34-.57.11-1.37.16-2.4.16Z"/><path class="cls-1" d="M310.38,189.35v-30.21h5.9v12.22c.34-.49.76-.97,1.28-1.45.51-.48,1.16-.88,1.93-1.21s1.71-.49,2.83-.49c1.34,0,2.57.26,3.67.78s1.99,1.28,2.66,2.27,1.01,2.2,1.01,3.62v14.47h-5.96v-13.6c0-.95-.34-1.68-1.03-2.19-.68-.51-1.51-.76-2.49-.76-.64,0-1.25.12-1.85.35s-1.08.58-1.45,1.05c-.37.47-.56,1.05-.56,1.74v13.42h-5.94Z"/><path class="cls-1" d="M343.64,189.75c-2.06,0-3.85-.44-5.38-1.32-1.53-.88-2.7-2.13-3.54-3.74-.83-1.61-1.25-3.52-1.25-5.73s.42-4.14,1.25-5.79c.83-1.65,2.01-2.94,3.54-3.86,1.52-.92,3.32-1.38,5.4-1.38s3.87.45,5.39,1.35c1.52.9,2.69,2.18,3.52,3.83.83,1.65,1.24,3.61,1.24,5.86,0,2.11-.4,3.98-1.21,5.6-.81,1.62-1.97,2.89-3.48,3.81-1.51.92-3.34,1.38-5.48,1.38ZM343.66,185.34c1.04,0,1.88-.3,2.52-.92.64-.61,1.1-1.41,1.38-2.41.29-1,.43-2.08.43-3.26,0-1.11-.13-2.16-.39-3.15-.26-.99-.71-1.79-1.34-2.4-.64-.61-1.5-.91-2.6-.91s-1.89.29-2.53.86c-.64.58-1.12,1.36-1.41,2.34-.3.98-.45,2.07-.45,3.26,0,1.1.14,2.15.41,3.16.27,1.01.72,1.83,1.36,2.47s1.51.96,2.62.96Z"/><path class="cls-1" d="M365.82,189.75c-2.82,0-5.01-.97-6.59-2.92-1.57-1.94-2.36-4.65-2.36-8.12,0-2.2.32-4.1.96-5.71.64-1.61,1.58-2.86,2.83-3.75s2.77-1.33,4.57-1.33c.76,0,1.47.08,2.12.25.66.17,1.26.4,1.8.7.54.3,1.02.64,1.42,1.04.41.39.74.81,1,1.26v-12.04h5.96v30.21h-4.31l-.67-4.31c-.2.58-.47,1.15-.8,1.71-.33.56-.76,1.06-1.29,1.51-.53.45-1.18.82-1.94,1.09-.77.27-1.66.41-2.69.41ZM367.12,185.49c1.49,0,2.61-.52,3.34-1.57.74-1.04,1.11-2.81,1.11-5.29-.01-1.44-.18-2.63-.51-3.58-.33-.95-.81-1.66-1.45-2.12-.64-.47-1.46-.7-2.45-.7-1.29,0-2.36.49-3.21,1.47-.85.98-1.28,2.63-1.28,4.93s.4,4.07,1.2,5.18c.8,1.11,1.88,1.67,3.25,1.67Z"/><path class="cls-1" d="M382.46,166.25v-5.95h-2.19v-1.31h5.81v1.31h-2.14v5.95h-1.47Z"/><path class="cls-1" d="M387.07,166.25v-7.26h2.13l1.66,5.18,1.68-5.18h2.12v7.26h-1.48v-5.55l-1.75,5.55h-1.15l-1.74-5.53v5.53h-1.48Z"/><path class="cls-2" d="M273.53,110.78v-17.47c0-.21.17-.37.37-.37h5.45c.18,0,.32-.14.32-.32v-5.71c0-.18-.14-.32-.32-.32h-5.44c-.21,0-.37-.17-.37-.37v-8.03c0-.18-.14-.32-.32-.32h-5.69c-.18,0-.32.14-.32.32v34.33c0,2.74,2.24,4.97,4.97,4.97h7.17c.18,0,.32-.14.32-.32v-5.69c0-.18-.14-.32-.32-.32h-5.45c-.21,0-.37-.17-.37-.37h0Z"/><path class="cls-2" d="M151.02,103.12c-.09-.52-.13-1.06-.13-1.59s.04-1.06.13-1.59c.77-4.64,4.8-8.03,9.49-8.03,2.56,0,4.99,1.01,6.8,2.82l.73.73c.12.12.33.12.45,0l4.02-4.02c.12-.12.12-.33,0-.45l-.73-.73c-3-3-7.04-4.67-11.28-4.67-8.04,0-14.84,6-15.83,13.98-.08.66-.12,1.32-.12,1.98s.04,1.32.12,1.98c.99,7.98,7.79,13.97,15.83,13.97,4.24,0,8.28-1.67,11.28-4.67l.73-.73c.12-.12.12-.33,0-.45l-4.02-4.02c-.12-.12-.33-.12-.45,0l-.73.73c-1.81,1.81-4.24,2.82-6.8,2.82-4.7,0-8.72-3.4-9.49-8.03h0v-.03Z"/><path class="cls-2" d="M309.96,107.76l-9.33-20.98c-.05-.12-.16-.19-.29-.19h-6.26c-.12,0-.21.05-.27.15s-.07.2-.02.31l13.55,30.26c.05.12.16.19.29.19h5.33c.13,0,.24-.07.29-.19l13.72-30.26c.05-.11.04-.21-.02-.31s-.15-.15-.27-.15h-6.26c-.13,0-.24.07-.29.19l-9.47,20.99c-.06.14-.19.22-.34.22s-.28-.08-.34-.22h-.02Z"/><path class="cls-2" d="M176.5,117.16c0,.18.14.32.32.32h5.69c.18,0,.32-.14.32-.32v-14.73c0-.53.04-1.06.13-1.59.77-4.64,4.8-8.03,9.49-8.03h1.03c.18,0,.32-.14.32-.32v-5.69c0-.18-.14-.32-.32-.32h-1.03c-8.04,0-14.84,5.99-15.83,13.98-.08.65-.12,1.31-.12,1.97v14.73h0Z"/><path class="cls-2" d="M283.96,86.58c-.18,0-.32.14-.32.32v30.26c0,.18.14.32.32.32h5.69c.18,0,.32-.14.32-.32v-30.26c0-.18-.14-.32-.32-.32h-5.69ZM286.81,76.03c-2.08,0-3.77,1.69-3.77,3.77s1.69,3.77,3.77,3.77,3.77-1.69,3.77-3.77-1.69-3.77-3.77-3.77h0Z"/><path class="cls-2" d="M245.37,85.71c-7.98.99-13.97,7.79-13.97,15.83s5.99,14.84,13.97,15.83c.66.08,1.32.12,1.98.12s1.32-.04,1.98-.12c1.43-.18,2.83-.54,4.15-1.1.13-.05.2-.16.2-.3v-6.51c0-.13-.06-.23-.18-.29-.11-.06-.23-.05-.34.03-1.24.94-2.69,1.57-4.22,1.82-.52.09-1.06.13-1.59.13s-1.06-.04-1.59-.13l-.13-.02c-4.57-.82-7.9-4.83-7.9-9.47s3.4-8.72,8.03-9.49c.52-.09,1.06-.13,1.59-.13s1.06.04,1.59.13l.13.02c4.58.82,7.91,4.83,7.91,9.47v15.13c0,.18.14.32.32.32h5.69c.18,0,.32-.14.32-.32v-15.13c0-8.04-5.99-14.84-13.97-15.83-.66-.08-1.32-.12-1.98-.12s-1.32.04-1.98.12h-.01Z"/><path class="cls-2" d="M349.06,108.34c-1.05,1.05-2.3,1.83-3.67,2.3-.03.01-.06.02-.09.03-.96.32-1.98.49-3.04.49-2.22,0-4.33-.77-6-2.1-1.25-1-2.26-2.31-2.9-3.84,0-.01,0-.03-.01-.04-.46-1.12-.71-2.35-.71-3.64s.25-2.52.71-3.64c0-.01,0-.02.01-.04.63-1.53,1.63-2.83,2.87-3.83h0c1.65-1.32,3.74-2.12,6.02-2.12s4.34.78,6.02,2.12c1.24.99,2.24,2.3,2.88,3.83,0,.01,0,.02.01.04.06.16.13.32.18.48h-15.37c-.34.99-.53,2.05-.53,3.16s.19,2.17.53,3.16h21.68c.16,0,.3-.12.32-.28l.11-.91c.08-.66.12-1.32.12-1.98s-.04-1.32-.12-1.98c-.99-7.98-7.79-13.98-15.83-13.98s-14.84,6-15.83,13.98c-.08.66-.12,1.32-.12,1.98s.04,1.32.12,1.98c.99,7.98,7.79,13.98,15.83,13.98,4.24,0,8.28-1.67,11.28-4.67l.73-.73c.12-.12.12-.33,0-.45l-4.02-4.02c-.12-.12-.33-.12-.45,0l-.73.73h0Z"/><path class="cls-2" d="M218.41,108.34c-1.05,1.05-2.3,1.83-3.67,2.3-.03.01-.06.02-.09.03-.96.32-1.98.49-3.04.49-2.22,0-4.33-.77-6-2.1-1.25-1-2.26-2.31-2.9-3.84,0-.01,0-.03,0-.04-.46-1.12-.71-2.35-.71-3.64s.25-2.52.71-3.64c0-.01,0-.02,0-.04.63-1.53,1.63-2.83,2.87-3.83h0c1.65-1.32,3.74-2.12,6.02-2.12s4.34.78,6.02,2.12c1.24.99,2.24,2.3,2.88,3.83,0,.01,0,.02,0,.04.06.16.13.32.18.48h-15.37c-.34.99-.53,2.05-.53,3.16s.19,2.17.53,3.16h21.68c.16,0,.3-.12.32-.28l.11-.91c.08-.66.12-1.32.12-1.98s-.04-1.32-.12-1.98c-.99-7.98-7.79-13.98-15.83-13.98s-14.84,6-15.83,13.98c-.08.66-.12,1.32-.12,1.98s.04,1.32.12,1.98c.99,7.98,7.79,13.98,15.83,13.98,4.24,0,8.28-1.67,11.28-4.67l.73-.73c.12-.12.12-.33,0-.45l-4.02-4.02c-.12-.12-.33-.12-.45,0l-.73.73h0Z"/><path class="cls-2" d="M279.69,63.41v-22.85c0-.27.22-.49.49-.49h7.12c.23,0,.42-.19.42-.42v-7.47c0-.23-.19-.42-.42-.42h-7.12c-.27,0-.49-.22-.49-.49v-11.35c0-.23-.19-.42-.42-.42h-7.44c-.23,0-.42.19-.42.42v45.75c0,3.58,2.92,6.5,6.5,6.5h9.38c.23,0,.42-.19.42-.42v-7.44c0-.23-.19-.42-.42-.42h-7.12c-.27,0-.49-.22-.49-.49h.01Z"/><path class="cls-2" d="M410.83,63.6v-22.85c0-.27.22-.49.49-.49h7.12c.23,0,.42-.19.42-.42v-7.47c0-.23-.19-.42-.42-.42h-7.12c-.27,0-.49-.22-.49-.49v-11.35c0-.23-.19-.42-.42-.42h-7.44c-.23,0-.42.19-.42.42v45.75c0,3.58,2.92,6.5,6.5,6.5h9.38c.23,0,.42-.19.42-.42v-7.44c0-.23-.19-.42-.42-.42h-7.12c-.27,0-.49-.22-.49-.49h.01Z"/><path class="cls-2" d="M370,53.58c-.11-.69-.17-1.38-.17-2.07s.06-1.39.17-2.08c1.01-6.06,6.27-10.51,12.41-10.51,3.35,0,6.53,1.32,8.9,3.68l.96.96c.16.16.43.16.59,0l5.26-5.26c.16-.16.16-.43,0-.59l-.96-.96c-3.92-3.92-9.2-6.11-14.75-6.11-10.51,0-19.41,7.84-20.7,18.28-.11.86-.16,1.72-.16,2.58s.05,1.73.16,2.58c1.29,10.44,10.19,18.27,20.7,18.27,5.55,0,10.83-2.19,14.75-6.11l.96-.96c.16-.16.16-.43,0-.59l-5.26-5.26c-.16-.16-.43-.16-.59,0l-.96.96c-2.37,2.37-5.55,3.68-8.9,3.68-6.14,0-11.41-4.45-12.41-10.51h0v.02Z"/><path class="cls-2" d="M243.69,42.82c-.07-.31-.06-.63,0-.94.22-1.03,1.04-1.68,2.09-1.68h20.86c.23,0,.42-.19.42-.42v-7.47c0-.23-.19-.42-.42-.42h-20.86c-3.82,0-7.42,2.37-9.24,5.68-.44.8-.78,1.66-.97,2.56-.22,1.04-.33,2.1-.27,3.16.15,2.5,1.22,4.51,2.94,6.29.92.95,2.02,1.72,3.23,2.27l17.82,8.06c.62.28,1.07.79,1.21,1.46.07.31.06.63,0,.94-.22,1.03-1.04,1.68-2.09,1.68h-20.91c-.23,0-.42.19-.42.42v7.47c0,.23.19.42.42.42h20.91c3.82,0,7.42-2.37,9.24-5.68.44-.8.78-1.66.97-2.56.22-1.04.33-2.1.27-3.16-.15-2.5-1.22-4.51-2.94-6.29-.92-.95-2.02-1.72-3.23-2.27l-17.82-8.06c-.62-.28-1.07-.79-1.21-1.46h0Z"/><path class="cls-2" d="M292.03,71.94c0,.23.19.42.42.42h7.44c.23,0,.42-.19.42-.42v-19.26c0-.7.06-1.39.17-2.08,1-6.06,6.27-10.51,12.41-10.51h1.35c.23,0,.42-.19.42-.42v-7.44c0-.23-.19-.42-.42-.42h-1.35c-10.51,0-19.41,7.84-20.7,18.28-.11.86-.16,1.72-.16,2.58v19.26h0Z"/><path class="cls-2" d="M208.85,30.8c-1.87.23-3.7.71-5.43,1.43-.16.07-.26.21-.26.39v8.51c0,.17.08.3.23.38.15.07.31.06.44-.04,1.62-1.23,3.51-2.05,5.52-2.38.69-.11,1.38-.17,2.08-.17s1.39.06,2.08.17l.16.03c5.99,1.07,10.34,6.31,10.34,12.38s-4.45,11.41-10.51,12.41c-.69.11-1.38.17-2.08.17s-1.39-.06-2.08-.17l-.17-.03c-5.98-1.07-10.33-6.31-10.33-12.38v-31.58c0-.23-.19-.42-.42-.42h-7.44c-.23,0-.42.19-.42.42v31.58c0,10.51,7.84,19.41,18.28,20.7.86.11,1.72.16,2.58.16s1.73-.05,2.58-.16c10.44-1.29,18.28-10.19,18.28-20.7s-7.84-19.41-18.28-20.7c-.86-.11-1.72-.16-2.58-.16s-1.73.05-2.58.16h0Z"/><path class="cls-2" d="M162.84,30.8c-10.44,1.29-18.28,10.19-18.28,20.7s7.84,19.41,18.28,20.7c.86.11,1.72.16,2.58.16s1.73-.05,2.58-.16c1.87-.23,3.7-.71,5.43-1.43.16-.07.26-.21.26-.39v-8.51c0-.17-.08-.3-.23-.38-.15-.07-.31-.06-.44.04-1.62,1.23-3.51,2.05-5.52,2.38-.69.11-1.38.17-2.08.17s-1.39-.06-2.08-.17l-.17-.03c-5.98-1.07-10.33-6.31-10.33-12.38s4.45-11.41,10.51-12.41c.69-.11,1.38-.17,2.08-.17s1.39.06,2.08.17l.16.03c5.99,1.07,10.34,6.31,10.34,12.38v19.79c0,.23.19.42.42.42h7.44c.23,0,.42-.19.42-.42v-19.79c0-10.51-7.84-19.41-18.28-20.7-.86-.11-1.72-.16-2.58-.16s-1.73.05-2.58.16h0Z"/><path class="cls-2" d="M333.8,30.8c-10.44,1.29-18.28,10.19-18.28,20.7s7.84,19.41,18.28,20.7c.86.11,1.72.16,2.58.16s1.73-.05,2.58-.16c1.87-.23,3.7-.71,5.43-1.43.16-.07.26-.21.26-.39v-8.51c0-.17-.08-.3-.23-.38-.15-.07-.31-.06-.44.04-1.62,1.23-3.51,2.05-5.52,2.38-.69.11-1.38.17-2.08.17s-1.39-.06-2.08-.17l-.17-.03c-5.98-1.07-10.33-6.31-10.33-12.38s4.45-11.41,10.51-12.41c.69-.11,1.38-.17,2.08-.17s1.39.06,2.08.17l.16.03c5.99,1.07,10.34,6.31,10.34,12.38v19.79c0,.23.19.42.42.42h7.44c.23,0,.42-.19.42-.42v-19.79c0-10.51-7.84-19.41-18.28-20.7-.86-.11-1.72-.16-2.58-.16s-1.73.05-2.58.16h-.01Z"/><path class="cls-3" d="M77.73,86.57c-4.27,0-8.48.28-12.61.81l12.61-41.86,10.62,35.25c8.88.91,17.6,2.94,25.94,6.07l-20.26-67.27h-32.59l-22.61,75.06c-3.44,1.49-6.78,3.17-10,5.03l11.68,20.23c10.95-6.34,23.67-9.96,37.23-9.96s26.28,3.63,37.23,9.96l11.67-20.23c-14.38-8.33-31.08-13.09-48.9-13.09h-.01Z"/></svg>