<?xml version="1.0" encoding="UTF-8"?>
<svg id="Layer_1" xmlns="http://www.w3.org/2000/svg" version="1.1" viewBox="0 0 164 55.2">
  <!-- Generator: Adobe Illustrator 29.6.1, SVG Export Plug-In . SVG Version: 2.1.1 Build 9)  -->
  <defs>
    <style>
      .st0 {
        fill: #fff;
      }

      .st1 {
        fill-rule: evenodd;
      }

      .st1, .st2 {
        fill: #ee4137;
      }
    </style>
  </defs>
  <g>
    <path class="st2" d="M58.2,10.6h4.2l5.3,14.2h-4.4l-.7-2.1h-4.8l-.7,2.1h-4.1l5.3-14.2ZM58.7,19.9h2.9l-.9-2.8c-.2-.7-.5-1.8-.5-1.8h0s-.3,1.1-.5,1.8l-.9,2.8Z"/>
    <path class="st2" d="M68.5,10.6h7.4c1.4,0,2.4.3,3.2.9.9.7,1.4,1.6,1.4,2.8s-.6,2.2-1.8,2.7h0c1.6.6,2.4,1.9,2.4,3.5s-.6,2.7-1.6,3.4c-.9.6-2,.9-3.4.9h-7.5v-14.2ZM75.2,16.1c.8,0,1.3-.4,1.3-1.1s-.6-1.2-1.4-1.2h-2.6v2.3h2.6ZM75.6,21.6c.9,0,1.5-.5,1.5-1.4s-.7-1.4-1.5-1.4h-2.9v2.8h3Z"/>
    <path class="st2" d="M81.6,20.3h4.3c.1,1.1,1,1.7,2.4,1.7s1.8-.3,1.8-1.2-1-1.1-2.7-1.5c-2.4-.6-5.3-1.4-5.3-4.4s2.7-4.5,5.9-4.5,5.7,1.2,5.7,4.3h-4.1c-.1-.8-.7-1.3-1.8-1.3s-1.6.4-1.6,1c0,.8,1.2,1,3.3,1.5,2.4.6,4.8,1.5,4.8,4.5s-2.8,4.8-6.1,4.8-6.5-1.6-6.6-4.9Z"/>
    <path class="st2" d="M94.5,10.6h12.3v3.5h-4.1v10.7h-4.2v-10.7h-4v-3.5Z"/>
    <path class="st2" d="M107.9,10.6h7.1c2.9,0,5.4,1.3,5.4,4.2s-.8,2.8-2.3,3.5h0c1.2.5,1.8,1.3,2,2.4.4,1.7,0,3.8.6,3.9v.2h-4.1c-.4-.3-.2-2-.5-3.3-.3-1.1-.7-1.7-2-1.7h-1.9v5h-4.2v-14.2ZM112.1,16.9h2.2c1.2,0,1.9-.5,1.9-1.5s-.6-1.5-1.8-1.5h-2.3v3Z"/>
    <path class="st2" d="M126.2,10.6h4.2l5.3,14.2h-4.4l-.7-2.1h-4.8l-.7,2.1h-4.1l5.3-14.2ZM126.7,19.9h2.9l-.9-2.8c-.2-.7-.5-1.8-.5-1.8h0s-.3,1.1-.5,1.8l-.9,2.8Z"/>
    <path class="st2" d="M135,17.8c0-4.3,2.9-7.4,7.2-7.4s2.9.4,4,1.1c1.5,1,2.3,2.6,2.5,4.4h-4.2c0-1.1-1-2.1-2.4-2.1-2,0-2.9,1.7-2.9,4s1.1,4,3,4,2.3-1,2.5-2.2h4.2c-.1,1.6-.8,3-1.9,3.9-1.2,1.2-2.7,1.7-4.8,1.7-4.3,0-7.2-3.1-7.2-7.4Z"/>
    <path class="st2" d="M149.1,10.6h12.3v3.5h-4.1v10.7h-4.2v-10.7h-4v-3.5Z"/>
    <path class="st0" d="M53.3,35.4c0-4.3,2.9-7.4,7.2-7.4s2.9.4,4,1.1c1.5,1,2.3,2.6,2.5,4.4h-4.2c0-1.1-1-2.1-2.4-2.1-2,0-2.9,1.7-2.9,4s1.1,4,3,4,2.3-1,2.5-2.2h4.2c-.1,1.6-.8,3-1.9,3.9-1.2,1.2-2.7,1.7-4.8,1.7-4.3,0-7.2-3.1-7.2-7.4Z"/>
    <path class="st0" d="M68.2,28.2h7.1c2.9,0,5.4,1.3,5.4,4.2s-.8,2.8-2.3,3.5h0c1.2.5,1.8,1.3,2,2.4.4,1.7,0,3.8.6,3.9v.2h-4.1c-.4-.3-.2-2-.5-3.3-.3-1.1-.7-1.7-2-1.7h-1.9v5h-4.2v-14.2ZM72.4,34.5h2.2c1.2,0,1.9-.5,1.9-1.5s-.6-1.5-1.8-1.5h-2.3v3Z"/>
    <path class="st0" d="M82,28.2h11.1v3.4h-6.9v1.9h5.8v3.1h-5.8v2.2h7.1v3.6h-11.3v-14.2Z"/>
    <path class="st0" d="M99,28.2h4.2l5.3,14.2h-4.4l-.7-2.1h-4.8l-.7,2.1h-4.1l5.3-14.2ZM99.5,37.5h2.9l-.9-2.8c-.2-.7-.5-1.8-.5-1.8h0s-.3,1.1-.5,1.8l-.9,2.8Z"/>
    <path class="st0" d="M106.9,28.2h12.3v3.5h-4.1v10.7h-4.2v-10.7h-4v-3.5Z"/>
    <path class="st0" d="M120.4,28.2h4.2v14.2h-4.2v-14.2Z"/>
    <path class="st0" d="M125.3,28.2h4.3l2,6.7c.4,1.2.7,2.8.7,2.8h0s.4-1.6.7-2.8l1.9-6.7h4.2l-4.6,14.2h-4.7l-4.6-14.2Z"/>
    <path class="st0" d="M139.8,28.2h11.1v3.4h-6.9v1.9h5.8v3.1h-5.8v2.2h7.1v3.6h-11.3v-14.2Z"/>
  </g>
  <path class="st1" d="M33.7,49.5h12.3l-10.9-23.3-11.5,6.7,7.3-15.9-6.2-13.2-10.6,22.9L3.5,49.5c8.3-4.8,15.5-9,23.8-13.8l6.4,13.8ZM31.1,33.6l2.2-1.3,5.9,12.9h-2.7l-5.4-11.6h0ZM16.9,36.8l-3.6,2.1,11.4-24.7,1.4,2.9-9.2,19.7Z"/>
</svg>